# xmcd
#
# Track frame offsets: 
#        150
#        18488
#        37683
#        60963
#        88255
#        108397
#        119412
#        142199
#        151779
#        172881
#        199021
#        214392
#        243312
#        252706
#        270916
#
# Disc length: 3857 seconds
#
# Revision: 0
# Processed by: cddbd v1.5.2PL0 Copyright (c) Steve Scherf et al.
# Submitted via: ExactAudioCopy v0.99pb3
#
DISCID=cb0f0f0f
DTITLE=Jerry 'Boogie' McCain - Better Late Than Never [CD1]
DYEAR=2008
DGENRE=Blues
TTITLE0=Mercy Mercy
TTITLE1=You Are Messing With Me Baby
TTITLE2=Potato Patch
TTITLE3=Pull Up In My Garage
TTITLE4=She Tore Me Up
TTITLE5=She's Tuff
TTITLE6=Spoiled Rotten (To The Bone)
TTITLE7=Steady (Fifties Classic)
TTITLE8=Strut Your Stuff
TTITLE9=Sue Somebody
TTITLE10=Strange Things
TTITLE11=This Stuff Could Kill Me
TTITLE12=Ting Ting Tigaloo
TTITLE13=I Want To Be Your Sant Claus
TTITLE14=I Am Waiting On Jesus
EXTD=
EXTT0=
EXTT1=
EXTT2=
EXTT3=
EXTT4=
EXTT5=
EXTT6=
EXTT7=
EXTT8=
EXTT9=
EXTT10=
EXTT11=
EXTT12=
EXTT13=
EXTT14=
PLAYORDER=
